<svg width="200" height="200" viewBox="0 0 200 200" fill="none" xmlns="http://www.w3.org/2000/svg">
<path d="M49.4619 52.4678C43.4746 61.7508 40 72.807 40 84.6748C40 117.536 66.6391 144.175 99.5 144.175C132.361 144.175 159 117.536 159 84.6748C159 73.4571 155.894 62.9652 150.498 54.0098L162.854 35.6797C173.592 49.2969 180 66.4874 180 85.1748C180 129.358 144.183 165.175 100 165.175C55.8172 165.175 20 129.358 20 85.1748C20 66.1754 26.623 48.7227 37.6865 35L49.4619 52.4678Z" fill="#38D5A9"/>
<path d="M127.488 83.3184C119.114 83.2401 109.705 84.7716 102.071 89.665V112.016C105.918 111.441 109.649 110.089 113.266 107.962C116.882 105.834 119.524 103.305 121.188 100.372L115.85 95.0244L129.627 84.6748V95.0244C129.625 98.3594 128.662 101.493 126.74 104.426C124.818 107.358 122.365 109.918 119.38 112.103C116.395 114.288 113.065 116.012 109.391 117.277C105.717 118.542 102.129 119.175 98.627 119.175C95.1229 119.175 91.535 118.542 87.8633 117.277C84.1915 116.012 80.8615 114.288 77.874 112.103C75.6566 110.481 73.734 108.652 72.1035 106.618C70.1561 106.977 68.162 107.175 66.127 107.175C60.4181 107.175 54.9729 106.061 50 104.043C57.398 123.415 76.1553 137.175 98.127 137.175C124.37 137.175 146.029 117.545 149.222 92.168C143.209 87.2163 137.147 83.4086 127.488 83.3184ZM95.1826 95.0303C90.6257 98.6103 85.2775 102.183 79.3467 104.517C80.6563 105.763 82.2031 106.912 83.9883 107.962C87.6049 110.089 91.3363 111.441 95.1826 112.016V95.0303ZM67.627 95.0244C67.627 98.3593 68.5879 101.493 70.5098 104.426C71.0052 105.182 71.5373 105.912 72.1035 106.618C74.5992 106.158 77.0177 105.433 79.3467 104.517C78.0031 103.238 76.9085 101.857 76.0654 100.372L81.4043 95.0244L67.627 84.6748V95.0244ZM98.627 50.1748C95.7567 50.1748 93.3168 51.181 91.3076 53.1934C89.2984 55.2058 88.294 57.6496 88.2939 60.5244C88.2939 62.7668 88.9391 64.7657 90.2295 66.5205C91.52 68.2754 93.1711 69.5263 95.1826 70.2715V74.3252H84.8496V81.2246H95.1826V95.0303C96.4118 94.0646 97.5845 93.0999 98.6943 92.1572C99.7711 91.2426 100.901 90.4152 102.071 89.665V81.2246H112.404V74.3252H102.071V70.2715C104.081 69.524 105.731 68.2725 107.021 66.5176C108.312 64.7627 108.958 62.7646 108.96 60.5244C108.96 57.6496 107.955 55.2058 105.946 53.1934C103.937 51.181 101.497 50.1748 98.627 50.1748ZM98.627 57.0752C99.6028 57.0706 100.42 57.4015 101.079 58.0684C101.738 58.7353 102.069 59.554 102.071 60.5244C102.074 61.495 101.743 62.3151 101.079 62.9844C100.415 63.6537 99.5983 63.9838 98.627 63.9746C97.651 63.9746 96.8322 63.6445 96.1709 62.9844C95.5097 62.3243 95.1803 61.5041 95.1826 60.5244C95.185 59.5448 95.5159 58.7261 96.1748 58.0684C96.8338 57.4107 97.6511 57.0798 98.627 57.0752Z" fill="#38D5A9"/>
</svg>
