<svg width="200" height="200" viewBox="0 0 200 200" fill="none" xmlns="http://www.w3.org/2000/svg">
<path d="M168.467 53.7256C177.632 67.0185 183 83.1322 183 100.5C183 146.063 146.063 183 100.5 183C54.9365 183 18 146.063 18 100.5C18 83.417 23.1917 67.5464 32.084 54.3809L45.4531 70.25C40.6976 79.1105 38 89.2402 38 100C38 134.794 66.2061 163 101 163C135.794 163 164 134.794 164 100C164 88.6555 161.001 78.0119 155.753 68.8174L168.467 53.7256Z" fill="white"/>
<path d="M53 84C67.9552 84 85.5699 93.7987 91.0977 97.7207C96.6254 101.643 116.069 109.998 129 111C141.931 112.002 148.747 108.545 156.837 104.297C154.642 133.217 130.482 156 101 156C70.0721 156 45 130.928 45 100C45 94.5368 45.7835 89.2566 47.2422 84.2646C49.1335 84.0912 51.0544 84 53 84Z" fill="white"/>
<path d="M100 134C96.4981 134 92.9102 133.368 89.2361 132.103C85.562 130.838 82.2324 129.113 79.2472 126.928C76.262 124.743 73.8084 122.184 71.8864 119.251C69.9644 116.319 69.0023 113.185 69 109.85V99.5L82.7778 109.85L77.4389 115.197C79.1037 118.13 81.7444 120.66 85.3611 122.788C88.9778 124.915 92.7093 126.266 96.5556 126.841V96.05H86.2222V89.15H96.5556V85.0962C94.5463 84.3487 92.8964 83.0976 91.6059 81.3427C90.3154 79.5878 89.669 77.5902 89.6667 75.35C89.6667 72.475 90.6713 70.0313 92.6806 68.0188C94.6898 66.0063 97.1296 65 100 65C102.87 65 105.31 66.0063 107.319 68.0188C109.329 70.0313 110.333 72.475 110.333 75.35C110.333 77.5925 109.688 79.5912 108.398 81.3461C107.107 83.101 105.456 84.351 103.444 85.0962V89.15H113.778V96.05H103.444V126.841C107.291 126.266 111.022 124.915 114.639 122.788C118.256 120.66 120.896 118.13 122.561 115.197L117.222 109.85L131 99.5V109.85C131 113.185 130.039 116.319 128.117 119.251C126.195 122.184 123.74 124.743 120.753 126.928C117.765 129.113 114.436 130.838 110.764 132.103C107.092 133.368 103.504 134 100 134ZM100 78.8C100.976 78.8 101.795 78.4699 102.456 77.8098C103.117 77.1497 103.447 76.3298 103.444 75.35C103.442 74.3702 103.111 73.5514 102.452 72.8936C101.793 72.2358 100.976 71.9046 100 71.9C99.0241 71.8954 98.2066 72.2266 97.5476 72.8936C96.8885 73.5606 96.5579 74.3794 96.5556 75.35C96.5533 76.3206 96.8839 77.1405 97.5476 77.8098C98.2112 78.4791 99.0287 78.8092 100 78.8Z" fill="black"/>
</svg>
